{"title":"Guardians of the Galaxy Trailer No. 1 720P x264 MP4 - Ofek","uid":9631488,"size":26978209,"categoryP":"video","categoryS":"movie_clips","magnet":"?xt=urn:btih:fa0557d5a34666c03906cf5a142c292ddc7a4a65&amp;dn=Guardians+of+the+Galaxy+Trailer+No.+1+720P+x264+MP4+-+Ofek&amp;tr=udp%3A%2F%2Ftracker.openbittorrent.com%3A80&amp;tr=udp%3A%2F%2Fopen.demonii.com%3A1337&amp;tr=udp%3A%2F%2Ftracker.coppersurfer.tk%3A6969&amp;tr=udp%3A%2F%2Fexodus.desync.com%3A6969","seeders":2,"leechers":0,"uploader":"realOfek","files":2,"time":1392790757,"description":"Please leave feedback!\n\nDownload .txt first to check upload date AND signature are correct. Formatting may look weird in notepad, just copy/paste into different text editor like usual. Guide on PGP verification, useful for everyone too\n\nGeneral\nFormat                                   : MPEG-4\nFormat profile                           : Base Media / Version 2\nCodec ID                                 : mp42\nFile size                                : 25.7 MiB\nDuration                                 : 2mn 30s\nOverall bit rate mode                    : Variable\nOverall bit rate                         : 1 431 Kbps\nEncoded date                             : UTC 2014-02-17 20:04:04\nTagged date                              : UTC 2014-02-17 20:04:04\ngsst                                     : 0\ngstd                                     : 150790\ngssd                                     : BADC28421HH1392786109631918\ngshh                                     : r1---iad23s16.googlevideo.com\n\nVideo\nID                                       : 1\nFormat                                   : AVC\nFormat/Info                              : Advanced Video Codec\nFormat profile                           : &lt;a class=&quot;__cf_email__&quot; href=&quot;/cdn-cgi/l/email-protection&quot; data-cfemail=&quot;3870515f5078740b1609&quot;&gt;[email&amp;#160;protected]&lt;/a&gt;&lt;script cf-hash='f9e31' type=&quot;text/javascript&quot;&gt;\n/* &lt;![CDATA[ */!function(){try{var t=&quot;currentScript&quot;in document?document.currentScript:function(){for(var t=document.getElementsByTagName(&quot;script&quot;),e=t.length;e--;)if(t[e].getAttribute(&quot;cf-hash&quot;))return t[e]}();if(t&amp;&amp;t.previousSibling){var e,r,n,i,c=t.previousSibling,a=c.getAttribute(&quot;data-cfemail&quot;);if(a){for(e=&quot;&quot;,r=parseInt(a.substr(0,2),16),n=2;a.length-n;n+=2)i=parseInt(a.substr(n,2),16)^r,e+=String.fromCharCode(i);e=document.createTextNode(e),c.parentNode.replaceChild(e,c)}}}catch(u){}}();/* ]]&gt; */&lt;/script&gt;\nFormat settings, CABAC                   : Yes\nFormat settings, ReFrames                : 1 frame\nFormat settings, GOP                     : M=1, N=60\nCodec ID                                 : avc1\nCodec ID/Info                            : Advanced Video Coding\nDuration                                 : 2mn 30s\nBit rate                                 : 1 237 Kbps\nMaximum bit rate                         : 5 043 Kbps\nWidth                                    : 1 280 pixels\nHeight                                   : 534 pixels\nDisplay aspect ratio                     : 2.40:1\nOriginal display aspect ratio            : 2.40:1\nFrame rate mode                          : Constant\nFrame rate                               : 23.976 fps\nColor space                              : YUV\nChroma subsampling                       : 4:2:0\nBit depth                                : 8 bits\nScan type                                : Progressive\nBits/(Pixel*Frame)                       : 0.075\nStream size                              : 22.2 MiB (86%)\nTagged date                              : UTC 2014-02-17 20:04:05\n\nAudio\nID                                       : 2\nFormat                                   : AAC\nFormat/Info                              : Advanced Audio Codec\nFormat profile                           : LC\nCodec ID                                 : 40\nDuration                                 : 2mn 30s\nBit rate mode                            : Variable\nBit rate                                 : 192 Kbps\nMaximum bit rate                         : 202 Kbps\nChannel(s)                               : 2 channels\nChannel positions                        : Front: L R\nSampling rate                            : 44.1 KHz\nCompression mode                         : Lossy\nStream size                              : 3.45 MiB (13%)\nTitle                                    : IsoMedia File Produced by Google, 5-11-2011\nEncoded date                             : UTC 2014-02-17 20:04:05\nTagged date                              : UTC 2014-02-17 20:04:05\n\nEnjoy!","torrent":{"xt":"urn:btih:fa0557d5a34666c03906cf5a142c292ddc7a4a65","amp;dn":"Guardians+of+the+Galaxy+Trailer+No.+1+720P+x264+MP4+-+Ofek","amp;tr":["udp%3A%2F%2Ftracker.openbittorrent.com%3A80","udp%3A%2F%2Fopen.demonii.com%3A1337","udp%3A%2F%2Ftracker.coppersurfer.tk%3A6969","udp%3A%2F%2Fexodus.desync.com%3A6969"],"infoHash":"fa0557d5a34666c03906cf5a142c292ddc7a4a65","infoHashBuffer":{"type":"Buffer","data":[250,5,87,213,163,70,102,192,57,6,207,90,20,44,41,45,220,122,74,101]},"announce":[],"urlList":[]}}